<svg id="visual" viewBox="0 0 600 900" width="600" height="900" xmlns="http://www.w3.org/2000/svg" xmlns:xlink="http://www.w3.org/1999/xlink" version="1.1"><rect x="0" y="0" width="600" height="900" fill="#dbd5d2"></rect><defs><linearGradient id="grad1_0" x1="0%" y1="0%" x2="100%" y2="100%"><stop offset="30%" stop-color="#201c1c" stop-opacity="1"></stop><stop offset="70%" stop-color="#201c1c" stop-opacity="1"></stop></linearGradient></defs><defs><linearGradient id="grad1_1" x1="0%" y1="0%" x2="100%" y2="100%"><stop offset="30%" stop-color="#201c1c" stop-opacity="1"></stop><stop offset="70%" stop-color="#585352" stop-opacity="1"></stop></linearGradient></defs><defs><linearGradient id="grad1_2" x1="0%" y1="0%" x2="100%" y2="100%"><stop offset="30%" stop-color="#97918f" stop-opacity="1"></stop><stop offset="70%" stop-color="#585352" stop-opacity="1"></stop></linearGradient></defs><defs><linearGradient id="grad1_3" x1="0%" y1="0%" x2="100%" y2="100%"><stop offset="30%" stop-color="#97918f" stop-opacity="1"></stop><stop offset="70%" stop-color="#dbd5d2" stop-opacity="1"></stop></linearGradient></defs><defs><linearGradient id="grad2_0" x1="0%" y1="0%" x2="100%" y2="100%"><stop offset="30%" stop-color="#201c1c" stop-opacity="1"></stop><stop offset="70%" stop-color="#201c1c" stop-opacity="1"></stop></linearGradient></defs><defs><linearGradient id="grad2_1" x1="0%" y1="0%" x2="100%" y2="100%"><stop offset="30%" stop-color="#585352" stop-opacity="1"></stop><stop offset="70%" stop-color="#201c1c" stop-opacity="1"></stop></linearGradient></defs><defs><linearGradient id="grad2_2" x1="0%" y1="0%" x2="100%" y2="100%"><stop offset="30%" stop-color="#585352" stop-opacity="1"></stop><stop offset="70%" stop-color="#97918f" stop-opacity="1"></stop></linearGradient></defs><defs><linearGradient id="grad2_3" x1="0%" y1="0%" x2="100%" y2="100%"><stop offset="30%" stop-color="#dbd5d2" stop-opacity="1"></stop><stop offset="70%" stop-color="#97918f" stop-opacity="1"></stop></linearGradient></defs><g transform="translate(600, 0)"><path d="M0 486.7C-50.3 475.8 -100.7 464.8 -143.7 442.2C-186.7 419.7 -222.4 385.4 -258 355.2C-293.7 324.9 -329.3 298.5 -366.5 266.3C-403.7 234 -442.6 195.8 -462.9 150.4C-483.2 105 -485 52.5 -486.7 0L0 0Z" fill="#b8b2b0"></path><path d="M0 365.1C-37.8 356.8 -75.5 348.6 -107.8 331.7C-140 314.7 -166.8 289.1 -193.5 266.4C-220.3 243.7 -246.9 223.9 -274.9 199.7C-302.8 175.5 -332 146.8 -347.2 112.8C-362.4 78.8 -363.7 39.4 -365.1 0L0 0Z" fill="#777170"></path><path d="M0 243.4C-25.2 237.9 -50.3 232.4 -71.8 221.1C-93.4 209.8 -111.2 192.7 -129 177.6C-146.8 162.4 -164.6 149.3 -183.2 133.1C-201.9 117 -221.3 97.9 -231.5 75.2C-241.6 52.5 -242.5 26.3 -243.4 0L0 0Z" fill="#3b3636"></path><path d="M0 121.7C-12.6 118.9 -25.2 116.2 -35.9 110.6C-46.7 104.9 -55.6 96.4 -64.5 88.8C-73.4 81.2 -82.3 74.6 -91.6 66.6C-100.9 58.5 -110.7 48.9 -115.7 37.6C-120.8 26.3 -121.2 13.1 -121.7 0L0 0Z" fill="#201c1c"></path></g><g transform="translate(0, 900)"><path d="M0 -486.7C54.6 -481.2 109.2 -475.6 144.3 -444.1C179.4 -412.7 195.1 -355.4 240.4 -330.9C285.8 -306.4 360.8 -314.6 393.8 -286.1C426.7 -257.6 417.6 -192.3 426.1 -138.4C434.5 -84.6 460.6 -42.3 486.7 0L0 0Z" fill="#b8b2b0"></path><path d="M0 -365.1C40.9 -360.9 81.9 -356.7 108.2 -333.1C134.6 -309.5 146.3 -266.6 180.3 -248.2C214.3 -229.8 270.6 -236 295.3 -214.6C320.1 -193.2 313.2 -144.2 319.6 -103.8C325.9 -63.5 345.5 -31.7 365.1 0L0 0Z" fill="#777170"></path><path d="M0 -243.4C27.3 -240.6 54.6 -237.8 72.2 -222.1C89.7 -206.4 97.5 -177.7 120.2 -165.4C142.9 -153.2 180.4 -157.3 196.9 -143.1C213.4 -128.8 208.8 -96.1 213 -69.2C217.3 -42.3 230.3 -21.2 243.4 0L0 0Z" fill="#3b3636"></path><path d="M0 -121.7C13.6 -120.3 27.3 -118.9 36.1 -111C44.9 -103.2 48.8 -88.9 60.1 -82.7C71.4 -76.6 90.2 -78.7 98.4 -71.5C106.7 -64.4 104.4 -48.1 106.5 -34.6C108.6 -21.2 115.2 -10.6 121.7 0L0 0Z" fill="#201c1c"></path></g></svg>