<svg id="visual" viewBox="0 0 600 900" width="600" height="900" xmlns="http://www.w3.org/2000/svg" xmlns:xlink="http://www.w3.org/1999/xlink" version="1.1"><rect x="0" y="0" width="600" height="900" fill="#dbd5d2"></rect><defs><linearGradient id="grad1_0" x1="0%" y1="100%" x2="100%" y2="0%"><stop offset="30%" stop-color="#201c1c" stop-opacity="1"></stop><stop offset="70%" stop-color="#201c1c" stop-opacity="1"></stop></linearGradient></defs><defs><linearGradient id="grad1_1" x1="0%" y1="100%" x2="100%" y2="0%"><stop offset="30%" stop-color="#201c1c" stop-opacity="1"></stop><stop offset="70%" stop-color="#777170" stop-opacity="1"></stop></linearGradient></defs><defs><linearGradient id="grad1_2" x1="0%" y1="100%" x2="100%" y2="0%"><stop offset="30%" stop-color="#dbd5d2" stop-opacity="1"></stop><stop offset="70%" stop-color="#777170" stop-opacity="1"></stop></linearGradient></defs><defs><linearGradient id="grad2_0" x1="0%" y1="100%" x2="100%" y2="0%"><stop offset="30%" stop-color="#201c1c" stop-opacity="1"></stop><stop offset="70%" stop-color="#201c1c" stop-opacity="1"></stop></linearGradient></defs><defs><linearGradient id="grad2_1" x1="0%" y1="100%" x2="100%" y2="0%"><stop offset="30%" stop-color="#777170" stop-opacity="1"></stop><stop offset="70%" stop-color="#201c1c" stop-opacity="1"></stop></linearGradient></defs><defs><linearGradient id="grad2_2" x1="0%" y1="100%" x2="100%" y2="0%"><stop offset="30%" stop-color="#777170" stop-opacity="1"></stop><stop offset="70%" stop-color="#dbd5d2" stop-opacity="1"></stop></linearGradient></defs><g transform="translate(600, 900)"><path d="M-513.8 0C-466.7 -57.4 -419.6 -114.9 -380.6 -157.7C-341.7 -200.4 -311 -228.5 -286.4 -286.4C-261.8 -344.2 -243.3 -431.8 -196.6 -474.7C-149.9 -517.5 -75 -515.7 0 -513.8L0 0Z" fill="#a8a2a0"></path><path d="M-342.5 0C-311.1 -38.3 -279.7 -76.6 -253.8 -105.1C-227.8 -133.6 -207.3 -152.4 -190.9 -190.9C-174.5 -229.5 -162.2 -287.9 -131.1 -316.5C-99.9 -345 -50 -343.8 0 -342.5L0 0Z" fill="#494444"></path><path d="M-171.3 0C-155.6 -19.1 -139.9 -38.3 -126.9 -52.6C-113.9 -66.8 -103.7 -76.2 -95.5 -95.5C-87.3 -114.7 -81.1 -143.9 -65.5 -158.2C-50 -172.5 -25 -171.9 0 -171.3L0 0Z" fill="#201c1c"></path></g><g transform="translate(0, 0)"><path d="M513.8 0C519.1 87 524.4 174 453.6 187.9C382.8 201.8 235.9 142.8 193 193C150.2 243.3 211.4 403 196.6 474.7C181.8 546.4 90.9 530.1 0 513.8L0 0Z" fill="#a8a2a0"></path><path d="M342.5 0C346.1 58 349.6 116 302.4 125.3C255.2 134.6 157.3 95.2 128.7 128.7C100.1 162.2 141 268.7 131.1 316.5C121.2 364.2 60.6 353.4 0 342.5L0 0Z" fill="#494444"></path><path d="M171.3 0C173 29 174.8 58 151.2 62.6C127.6 67.3 78.6 47.6 64.3 64.3C50.1 81.1 70.5 134.3 65.5 158.2C60.6 182.1 30.3 176.7 0 171.3L0 0Z" fill="#201c1c"></path></g></svg>