<svg id="visual" viewBox="0 0 900 900" width="900" height="900" xmlns="http://www.w3.org/2000/svg" xmlns:xlink="http://www.w3.org/1999/xlink" version="1.1"><rect x="0" y="0" width="900" height="900" fill="#bdb8b5"></rect><defs><linearGradient id="grad1_0" x1="0%" y1="0%" x2="100%" y2="100%"><stop offset="30%" stop-color="#201c1c" stop-opacity="1"></stop><stop offset="70%" stop-color="#201c1c" stop-opacity="1"></stop></linearGradient></defs><defs><linearGradient id="grad1_1" x1="0%" y1="0%" x2="100%" y2="100%"><stop offset="30%" stop-color="#201c1c" stop-opacity="1"></stop><stop offset="70%" stop-color="#433e3e" stop-opacity="1"></stop></linearGradient></defs><defs><linearGradient id="grad1_2" x1="0%" y1="0%" x2="100%" y2="100%"><stop offset="30%" stop-color="#696463" stop-opacity="1"></stop><stop offset="70%" stop-color="#433e3e" stop-opacity="1"></stop></linearGradient></defs><defs><linearGradient id="grad1_3" x1="0%" y1="0%" x2="100%" y2="100%"><stop offset="30%" stop-color="#696463" stop-opacity="1"></stop><stop offset="70%" stop-color="#928d8b" stop-opacity="1"></stop></linearGradient></defs><defs><linearGradient id="grad1_4" x1="0%" y1="0%" x2="100%" y2="100%"><stop offset="30%" stop-color="#bdb8b5" stop-opacity="1"></stop><stop offset="70%" stop-color="#928d8b" stop-opacity="1"></stop></linearGradient></defs><defs><linearGradient id="grad2_0" x1="0%" y1="0%" x2="100%" y2="100%"><stop offset="30%" stop-color="#201c1c" stop-opacity="1"></stop><stop offset="70%" stop-color="#201c1c" stop-opacity="1"></stop></linearGradient></defs><defs><linearGradient id="grad2_1" x1="0%" y1="0%" x2="100%" y2="100%"><stop offset="30%" stop-color="#433e3e" stop-opacity="1"></stop><stop offset="70%" stop-color="#201c1c" stop-opacity="1"></stop></linearGradient></defs><defs><linearGradient id="grad2_2" x1="0%" y1="0%" x2="100%" y2="100%"><stop offset="30%" stop-color="#433e3e" stop-opacity="1"></stop><stop offset="70%" stop-color="#696463" stop-opacity="1"></stop></linearGradient></defs><defs><linearGradient id="grad2_3" x1="0%" y1="0%" x2="100%" y2="100%"><stop offset="30%" stop-color="#928d8b" stop-opacity="1"></stop><stop offset="70%" stop-color="#696463" stop-opacity="1"></stop></linearGradient></defs><defs><linearGradient id="grad2_4" x1="0%" y1="0%" x2="100%" y2="100%"><stop offset="30%" stop-color="#928d8b" stop-opacity="1"></stop><stop offset="70%" stop-color="#bdb8b5" stop-opacity="1"></stop></linearGradient></defs><g transform="translate(900, 0)"><path d="M0 636.4C-74.5 557.1 -149 477.9 -251 434.7C-353 391.6 -482.3 384.6 -551.1 318.2C-619.9 251.8 -628.2 125.9 -636.4 0L0 0Z" fill="#a7a2a0"></path><path d="M0 509.1C-59.6 445.7 -119.2 382.3 -200.8 347.8C-282.4 313.3 -385.9 307.7 -440.9 254.6C-496 201.4 -502.5 100.7 -509.1 0L0 0Z" fill="#7d7877"></path><path d="M0 381.8C-44.7 334.3 -89.4 286.7 -150.6 260.8C-211.8 235 -289.4 230.8 -330.7 190.9C-372 151.1 -376.9 75.5 -381.8 0L0 0Z" fill="#565150"></path><path d="M0 254.6C-29.8 222.9 -59.6 191.1 -100.4 173.9C-141.2 156.6 -192.9 153.9 -220.5 127.3C-248 100.7 -251.3 50.4 -254.6 0L0 0Z" fill="#312d2c"></path><path d="M0 127.3C-14.9 111.4 -29.8 95.6 -50.2 86.9C-70.6 78.3 -96.5 76.9 -110.2 63.6C-124 50.4 -125.6 25.2 -127.3 0L0 0Z" fill="#201c1c"></path></g><g transform="translate(0, 900)"><path d="M0 -636.4C98.5 -598.7 197 -561 296 -512.7C395 -464.4 494.3 -405.4 551.1 -318.2C607.9 -231 622.2 -115.5 636.4 0L0 0Z" fill="#a7a2a0"></path><path d="M0 -509.1C78.8 -479 157.6 -448.8 236.8 -410.1C316 -371.5 395.5 -324.3 440.9 -254.6C486.4 -184.8 497.7 -92.4 509.1 0L0 0Z" fill="#7d7877"></path><path d="M0 -381.8C59.1 -359.2 118.2 -336.6 177.6 -307.6C237 -278.6 296.6 -243.3 330.7 -190.9C364.8 -138.6 373.3 -69.3 381.8 0L0 0Z" fill="#565150"></path><path d="M0 -254.6C39.4 -239.5 78.8 -224.4 118.4 -205.1C158 -185.7 197.7 -162.2 220.5 -127.3C243.2 -92.4 248.9 -46.2 254.6 0L0 0Z" fill="#312d2c"></path><path d="M0 -127.3C19.7 -119.7 39.4 -112.2 59.2 -102.5C79 -92.9 98.9 -81.1 110.2 -63.6C121.6 -46.2 124.4 -23.1 127.3 0L0 0Z" fill="#201c1c"></path></g></svg>