<svg id="visual" viewBox="0 0 1500 1000" width="1500" height="1000" xmlns="http://www.w3.org/2000/svg" xmlns:xlink="http://www.w3.org/1999/xlink" version="1.1"><rect x="0" y="0" width="1500" height="1000" fill="#dbd5d2"></rect><defs><linearGradient id="grad1_0" x1="33.3%" y1="0%" x2="100%" y2="100%"><stop offset="20%" stop-color="#201c1c" stop-opacity="1"></stop><stop offset="80%" stop-color="#201c1c" stop-opacity="1"></stop></linearGradient></defs><defs><linearGradient id="grad1_1" x1="33.3%" y1="0%" x2="100%" y2="100%"><stop offset="20%" stop-color="#201c1c" stop-opacity="1"></stop><stop offset="80%" stop-color="#585352" stop-opacity="1"></stop></linearGradient></defs><defs><linearGradient id="grad1_2" x1="33.3%" y1="0%" x2="100%" y2="100%"><stop offset="20%" stop-color="#97918f" stop-opacity="1"></stop><stop offset="80%" stop-color="#585352" stop-opacity="1"></stop></linearGradient></defs><defs><linearGradient id="grad1_3" x1="33.3%" y1="0%" x2="100%" y2="100%"><stop offset="20%" stop-color="#97918f" stop-opacity="1"></stop><stop offset="80%" stop-color="#dbd5d2" stop-opacity="1"></stop></linearGradient></defs><defs><linearGradient id="grad2_0" x1="0%" y1="0%" x2="66.7%" y2="100%"><stop offset="20%" stop-color="#201c1c" stop-opacity="1"></stop><stop offset="80%" stop-color="#201c1c" stop-opacity="1"></stop></linearGradient></defs><defs><linearGradient id="grad2_1" x1="0%" y1="0%" x2="66.7%" y2="100%"><stop offset="20%" stop-color="#585352" stop-opacity="1"></stop><stop offset="80%" stop-color="#201c1c" stop-opacity="1"></stop></linearGradient></defs><defs><linearGradient id="grad2_2" x1="0%" y1="0%" x2="66.7%" y2="100%"><stop offset="20%" stop-color="#585352" stop-opacity="1"></stop><stop offset="80%" stop-color="#97918f" stop-opacity="1"></stop></linearGradient></defs><defs><linearGradient id="grad2_3" x1="0%" y1="0%" x2="66.7%" y2="100%"><stop offset="20%" stop-color="#dbd5d2" stop-opacity="1"></stop><stop offset="80%" stop-color="#97918f" stop-opacity="1"></stop></linearGradient></defs><g transform="translate(1500, 0)"><path d="M0 811.2C-76.5 816.8 -153.1 822.3 -210 783.6C-266.9 744.9 -304.1 662.1 -353.5 612.3C-402.9 562.5 -464.4 545.8 -506.3 506.3C-548.2 466.8 -570.5 404.5 -608.8 351.5C-647.2 298.5 -701.6 254.8 -738 197.7C-774.4 140.7 -792.8 70.4 -811.2 0L0 0Z" fill="#b8b2b0"></path><path d="M0 608.4C-57.4 612.6 -114.8 616.7 -157.5 587.7C-200.1 558.7 -228.1 496.5 -265.1 459.2C-302.2 421.9 -348.3 409.3 -379.7 379.7C-411.1 350.1 -427.9 303.4 -456.6 263.6C-485.4 223.9 -526.2 191.1 -553.5 148.3C-580.8 105.5 -594.6 52.8 -608.4 0L0 0Z" fill="#777170"></path><path d="M0 405.6C-38.3 408.4 -76.5 411.1 -105 391.8C-133.4 372.5 -152.1 331 -176.7 306.1C-201.4 281.2 -232.2 272.9 -253.1 253.1C-274.1 233.4 -285.2 202.3 -304.4 175.8C-323.6 149.2 -350.8 127.4 -369 98.9C-387.2 70.4 -396.4 35.2 -405.6 0L0 0Z" fill="#3b3636"></path><path d="M0 202.8C-19.1 204.2 -38.3 205.6 -52.5 195.9C-66.7 186.2 -76 165.5 -88.4 153.1C-100.7 140.6 -116.1 136.4 -126.6 126.6C-137 116.7 -142.6 101.1 -152.2 87.9C-161.8 74.6 -175.4 63.7 -184.5 49.4C-193.6 35.2 -198.2 17.6 -202.8 0L0 0Z" fill="#201c1c"></path></g><g transform="translate(0, 1000)"><path d="M0 -811.2C69.2 -804.2 138.3 -797.1 209.6 -782.4C281 -767.7 354.5 -745.3 402 -696.3C449.5 -647.3 471.1 -571.8 524 -524C576.9 -476.1 661.2 -456 702.6 -405.6C744 -355.2 742.5 -274.5 753.4 -201.9C764.4 -129.2 787.8 -64.6 811.2 0L0 0Z" fill="#b8b2b0"></path><path d="M0 -608.4C51.9 -603.1 103.7 -597.9 157.2 -586.8C210.7 -575.7 265.9 -558.9 301.5 -522.2C337.1 -485.5 353.3 -428.8 393 -393C432.7 -357.1 495.9 -342 526.9 -304.2C558 -266.4 556.8 -205.9 565.1 -151.4C573.3 -96.9 590.9 -48.5 608.4 0L0 0Z" fill="#777170"></path><path d="M0 -405.6C34.6 -402.1 69.2 -398.6 104.8 -391.2C140.5 -383.8 177.2 -372.6 201 -348.1C224.8 -323.7 235.5 -285.9 262 -262C288.4 -238.1 330.6 -228 351.3 -202.8C372 -177.6 371.2 -137.3 376.7 -100.9C382.2 -64.6 393.9 -32.3 405.6 0L0 0Z" fill="#3b3636"></path><path d="M0 -202.8C17.3 -201 34.6 -199.3 52.4 -195.6C70.2 -191.9 88.6 -186.3 100.5 -174.1C112.4 -161.8 117.8 -142.9 131 -131C144.2 -119 165.3 -114 175.6 -101.4C186 -88.8 185.6 -68.6 188.4 -50.5C191.1 -32.3 197 -16.2 202.8 0L0 0Z" fill="#201c1c"></path></g></svg>