<svg id="visual" viewBox="0 0 900 300" width="900" height="300" xmlns="http://www.w3.org/2000/svg" xmlns:xlink="http://www.w3.org/1999/xlink" version="1.1"><rect x="0" y="0" width="900" height="300" fill="#dbd5d2"></rect><path d="M0 212L21.5 208.5C43 205 86 198 128.8 197.3C171.7 196.7 214.3 202.3 257.2 201C300 199.7 343 191.3 385.8 193.5C428.7 195.7 471.3 208.3 514.2 207C557 205.7 600 190.3 642.8 189.7C685.7 189 728.3 203 771.2 209.8C814 216.7 857 216.3 878.5 216.2L900 216L900 301L878.5 301C857 301 814 301 771.2 301C728.3 301 685.7 301 642.8 301C600 301 557 301 514.2 301C471.3 301 428.7 301 385.8 301C343 301 300 301 257.2 301C214.3 301 171.7 301 128.8 301C86 301 43 301 21.5 301L0 301Z" fill="#cccccc"></path><path d="M0 204L21.5 206.8C43 209.7 86 215.3 128.8 221.2C171.7 227 214.3 233 257.2 235.5C300 238 343 237 385.8 235C428.7 233 471.3 230 514.2 230.3C557 230.7 600 234.3 642.8 231.2C685.7 228 728.3 218 771.2 218C814 218 857 228 878.5 233L900 238L900 301L878.5 301C857 301 814 301 771.2 301C728.3 301 685.7 301 642.8 301C600 301 557 301 514.2 301C471.3 301 428.7 301 385.8 301C343 301 300 301 257.2 301C214.3 301 171.7 301 128.8 301C86 301 43 301 21.5 301L0 301Z" fill="#9d9b9b"></path><path d="M0 242L21.5 242.2C43 242.3 86 242.7 128.8 241.3C171.7 240 214.3 237 257.2 238.2C300 239.3 343 244.7 385.8 247C428.7 249.3 471.3 248.7 514.2 248.3C557 248 600 248 642.8 243.5C685.7 239 728.3 230 771.2 228.5C814 227 857 233 878.5 236L900 239L900 301L878.5 301C857 301 814 301 771.2 301C728.3 301 685.7 301 642.8 301C600 301 557 301 514.2 301C471.3 301 428.7 301 385.8 301C343 301 300 301 257.2 301C214.3 301 171.7 301 128.8 301C86 301 43 301 21.5 301L0 301Z" fill="#706d6d"></path><path d="M0 252L21.5 250.7C43 249.3 86 246.7 128.8 245.5C171.7 244.3 214.3 244.7 257.2 246.3C300 248 343 251 385.8 250.2C428.7 249.3 471.3 244.7 514.2 244.8C557 245 600 250 642.8 252.3C685.7 254.7 728.3 254.3 771.2 255C814 255.7 857 257.3 878.5 258.2L900 259L900 301L878.5 301C857 301 814 301 771.2 301C728.3 301 685.7 301 642.8 301C600 301 557 301 514.2 301C471.3 301 428.7 301 385.8 301C343 301 300 301 257.2 301C214.3 301 171.7 301 128.8 301C86 301 43 301 21.5 301L0 301Z" fill="#464242"></path><path d="M0 265L21.5 264.7C43 264.3 86 263.7 128.8 265.8C171.7 268 214.3 273 257.2 275.2C300 277.3 343 276.7 385.8 277.5C428.7 278.3 471.3 280.7 514.2 280.3C557 280 600 277 642.8 275.2C685.7 273.3 728.3 272.7 771.2 274.7C814 276.7 857 281.3 878.5 283.7L900 286L900 301L878.5 301C857 301 814 301 771.2 301C728.3 301 685.7 301 642.8 301C600 301 557 301 514.2 301C471.3 301 428.7 301 385.8 301C343 301 300 301 257.2 301C214.3 301 171.7 301 128.8 301C86 301 43 301 21.5 301L0 301Z" fill="#201c1c"></path></svg>