<svg id="visual" viewBox="0 0 900 300" width="900" height="300" xmlns="http://www.w3.org/2000/svg" xmlns:xlink="http://www.w3.org/1999/xlink" version="1.1"><rect x="0" y="0" width="900" height="300" fill="#001220"></rect><path d="M0 75L21.5 77.5C43 80 86 85 128.8 89.7C171.7 94.3 214.3 98.7 257.2 97C300 95.3 343 87.7 385.8 89.2C428.7 90.7 471.3 101.3 514.2 103.8C557 106.3 600 100.7 642.8 99.7C685.7 98.7 728.3 102.3 771.2 104.5C814 106.7 857 107.3 878.5 107.7L900 108L900 0L878.5 0C857 0 814 0 771.2 0C728.3 0 685.7 0 642.8 0C600 0 557 0 514.2 0C471.3 0 428.7 0 385.8 0C343 0 300 0 257.2 0C214.3 0 171.7 0 128.8 0C86 0 43 0 21.5 0L0 0Z" fill="#fa7268"></path><path d="M0 90L21.5 87.8C43 85.7 86 81.3 128.8 77.7C171.7 74 214.3 71 257.2 71C300 71 343 74 385.8 74C428.7 74 471.3 71 514.2 74.8C557 78.7 600 89.3 642.8 93C685.7 96.7 728.3 93.3 771.2 92.5C814 91.7 857 93.3 878.5 94.2L900 95L900 0L878.5 0C857 0 814 0 771.2 0C728.3 0 685.7 0 642.8 0C600 0 557 0 514.2 0C471.3 0 428.7 0 385.8 0C343 0 300 0 257.2 0C214.3 0 171.7 0 128.8 0C86 0 43 0 21.5 0L0 0Z" fill="#ef5f67"></path><path d="M0 61L21.5 58C43 55 86 49 128.8 51C171.7 53 214.3 63 257.2 63.5C300 64 343 55 385.8 51C428.7 47 471.3 48 514.2 52C557 56 600 63 642.8 67.3C685.7 71.7 728.3 73.3 771.2 73.8C814 74.3 857 73.7 878.5 73.3L900 73L900 0L878.5 0C857 0 814 0 771.2 0C728.3 0 685.7 0 642.8 0C600 0 557 0 514.2 0C471.3 0 428.7 0 385.8 0C343 0 300 0 257.2 0C214.3 0 171.7 0 128.8 0C86 0 43 0 21.5 0L0 0Z" fill="#e34c67"></path><path d="M0 30L21.5 31C43 32 86 34 128.8 37C171.7 40 214.3 44 257.2 46.8C300 49.7 343 51.3 385.8 50.5C428.7 49.7 471.3 46.3 514.2 46.5C557 46.7 600 50.3 642.8 47.8C685.7 45.3 728.3 36.7 771.2 32.7C814 28.7 857 29.3 878.5 29.7L900 30L900 0L878.5 0C857 0 814 0 771.2 0C728.3 0 685.7 0 642.8 0C600 0 557 0 514.2 0C471.3 0 428.7 0 385.8 0C343 0 300 0 257.2 0C214.3 0 171.7 0 128.8 0C86 0 43 0 21.5 0L0 0Z" fill="#d53867"></path><path d="M0 24L21.5 25.3C43 26.7 86 29.3 128.8 31C171.7 32.7 214.3 33.3 257.2 30.5C300 27.7 343 21.3 385.8 20.5C428.7 19.7 471.3 24.3 514.2 27.7C557 31 600 33 642.8 33.7C685.7 34.3 728.3 33.7 771.2 32.5C814 31.3 857 29.7 878.5 28.8L900 28L900 0L878.5 0C857 0 814 0 771.2 0C728.3 0 685.7 0 642.8 0C600 0 557 0 514.2 0C471.3 0 428.7 0 385.8 0C343 0 300 0 257.2 0C214.3 0 171.7 0 128.8 0C86 0 43 0 21.5 0L0 0Z" fill="#c62368"></path></svg>