<svg id="visual" viewBox="0 0 900 600" width="900" height="600" xmlns="http://www.w3.org/2000/svg" xmlns:xlink="http://www.w3.org/1999/xlink" version="1.1"><g stroke-width="1" stroke-linejoin="bevel"><path d="M404 274L376.5 329L540.5 308Z" fill="#645f5e" stroke="#645f5e"></path><path d="M376.5 329L435 431L540.5 308Z" fill="#524d4c" stroke="#524d4c"></path><path d="M435 431L539.5 416L540.5 308Z" fill="#413c3b" stroke="#413c3b"></path><path d="M198 325L325.5 390L376.5 329Z" fill="#c6c0be" stroke="#c6c0be"></path><path d="M376.5 329L325.5 390L435 431Z" fill="#413c3b" stroke="#413c3b"></path><path d="M540.5 308L458 188L404 274Z" fill="#302b2b" stroke="#302b2b"></path><path d="M404 274L322.5 167L376.5 329Z" fill="#524d4c" stroke="#524d4c"></path><path d="M668 264L579.5 235L540.5 308Z" fill="#524d4c" stroke="#524d4c"></path><path d="M540.5 308L579.5 235L458 188Z" fill="#b2aca9" stroke="#b2aca9"></path><path d="M435 431L472 502L539.5 416Z" fill="#777170" stroke="#777170"></path><path d="M303.5 498L472 502L435 431Z" fill="#777170" stroke="#777170"></path><path d="M472 502L573.5 488L539.5 416Z" fill="#8a8483" stroke="#8a8483"></path><path d="M539.5 416L663 385L540.5 308Z" fill="#777170" stroke="#777170"></path><path d="M643 483L663 385L539.5 416Z" fill="#524d4c" stroke="#524d4c"></path><path d="M550.5 71L422 127L458 188Z" fill="#9e9896" stroke="#9e9896"></path><path d="M458 188L322.5 167L404 274Z" fill="#c6c0be" stroke="#c6c0be"></path><path d="M422 127L322.5 167L458 188Z" fill="#777170" stroke="#777170"></path><path d="M663 385L668 264L540.5 308Z" fill="#777170" stroke="#777170"></path><path d="M579.5 235L550.5 71L458 188Z" fill="#413c3b" stroke="#413c3b"></path><path d="M224 479L303.5 498L325.5 390Z" fill="#b2aca9" stroke="#b2aca9"></path><path d="M325.5 390L303.5 498L435 431Z" fill="#413c3b" stroke="#413c3b"></path><path d="M573.5 488L643 483L539.5 416Z" fill="#9e9896" stroke="#9e9896"></path><path d="M643 600L643 483L573.5 488Z" fill="#9e9896" stroke="#9e9896"></path><path d="M422 127L356.5 108L322.5 167Z" fill="#302b2b" stroke="#302b2b"></path><path d="M199 187L198 325L322.5 167Z" fill="#645f5e" stroke="#645f5e"></path><path d="M322.5 167L198 325L376.5 329Z" fill="#c6c0be" stroke="#c6c0be"></path><path d="M339.5 600L491 600L472 502Z" fill="#524d4c" stroke="#524d4c"></path><path d="M472 502L491 600L573.5 488Z" fill="#645f5e" stroke="#645f5e"></path><path d="M761.5 245L673 177L668 264Z" fill="#524d4c" stroke="#524d4c"></path><path d="M668 264L673 177L579.5 235Z" fill="#645f5e" stroke="#645f5e"></path><path d="M422 127L407 0L356.5 108Z" fill="#201c1c" stroke="#201c1c"></path><path d="M188 388L224 479L325.5 390Z" fill="#dbd5d2" stroke="#dbd5d2"></path><path d="M303.5 498L339.5 600L472 502Z" fill="#dbd5d2" stroke="#dbd5d2"></path><path d="M198 325L188 388L325.5 390Z" fill="#777170" stroke="#777170"></path><path d="M673 177L550.5 71L579.5 235Z" fill="#777170" stroke="#777170"></path><path d="M491 600L572.5 600L573.5 488Z" fill="#b2aca9" stroke="#b2aca9"></path><path d="M235 600L339.5 600L303.5 498Z" fill="#c6c0be" stroke="#c6c0be"></path><path d="M242 58L199 187L322.5 167Z" fill="#9e9896" stroke="#9e9896"></path><path d="M198 325L156.5 318L188 388Z" fill="#413c3b" stroke="#413c3b"></path><path d="M643 483L748.5 428L663 385Z" fill="#645f5e" stroke="#645f5e"></path><path d="M806.5 314L761.5 245L668 264Z" fill="#c6c0be" stroke="#c6c0be"></path><path d="M773.5 463L748.5 428L643 483Z" fill="#201c1c" stroke="#201c1c"></path><path d="M199 187L156.5 318L198 325Z" fill="#524d4c" stroke="#524d4c"></path><path d="M188 388L150.5 411L224 479Z" fill="#dbd5d2" stroke="#dbd5d2"></path><path d="M806.5 314L668 264L663 385Z" fill="#b2aca9" stroke="#b2aca9"></path><path d="M687 0L543.5 0L550.5 71Z" fill="#8a8483" stroke="#8a8483"></path><path d="M156.5 318L150.5 411L188 388Z" fill="#9e9896" stroke="#9e9896"></path><path d="M224 479L235 600L303.5 498Z" fill="#201c1c" stroke="#201c1c"></path><path d="M572.5 600L643 600L573.5 488Z" fill="#8a8483" stroke="#8a8483"></path><path d="M749.5 600L773.5 463L643 483Z" fill="#dbd5d2" stroke="#dbd5d2"></path><path d="M748.5 428L806.5 314L663 385Z" fill="#645f5e" stroke="#645f5e"></path><path d="M550.5 71L407 0L422 127Z" fill="#302b2b" stroke="#302b2b"></path><path d="M356.5 108L242 58L322.5 167Z" fill="#c6c0be" stroke="#c6c0be"></path><path d="M900 402L806.5 314L748.5 428Z" fill="#413c3b" stroke="#413c3b"></path><path d="M715 78L550.5 71L673 177Z" fill="#c6c0be" stroke="#c6c0be"></path><path d="M550.5 71L543.5 0L407 0Z" fill="#8a8483" stroke="#8a8483"></path><path d="M121.5 526L235 600L224 479Z" fill="#c6c0be" stroke="#c6c0be"></path><path d="M326.5 0L242 58L356.5 108Z" fill="#524d4c" stroke="#524d4c"></path><path d="M407 0L326.5 0L356.5 108Z" fill="#9e9896" stroke="#9e9896"></path><path d="M761.5 245L715 78L673 177Z" fill="#b2aca9" stroke="#b2aca9"></path><path d="M831.5 68L715 78L761.5 245Z" fill="#524d4c" stroke="#524d4c"></path><path d="M199 187L118.5 173L156.5 318Z" fill="#b2aca9" stroke="#b2aca9"></path><path d="M156.5 318L0 374L150.5 411Z" fill="#524d4c" stroke="#524d4c"></path><path d="M96.5 134L118.5 173L199 187Z" fill="#b2aca9" stroke="#b2aca9"></path><path d="M0 479L121.5 526L150.5 411Z" fill="#9e9896" stroke="#9e9896"></path><path d="M150.5 411L121.5 526L224 479Z" fill="#201c1c" stroke="#201c1c"></path><path d="M643 600L749.5 600L643 483Z" fill="#b2aca9" stroke="#b2aca9"></path><path d="M900 402L900 339L806.5 314Z" fill="#8a8483" stroke="#8a8483"></path><path d="M326.5 0L245 0L242 58Z" fill="#524d4c" stroke="#524d4c"></path><path d="M242 58L96.5 134L199 187Z" fill="#b2aca9" stroke="#b2aca9"></path><path d="M809.5 0L687 0L715 78Z" fill="#8a8483" stroke="#8a8483"></path><path d="M715 78L687 0L550.5 71Z" fill="#8a8483" stroke="#8a8483"></path><path d="M134.5 0L96.5 134L242 58Z" fill="#b2aca9" stroke="#b2aca9"></path><path d="M0 283L0 374L156.5 318Z" fill="#413c3b" stroke="#413c3b"></path><path d="M900 402L748.5 428L773.5 463Z" fill="#524d4c" stroke="#524d4c"></path><path d="M806.5 314L900 228L761.5 245Z" fill="#302b2b" stroke="#302b2b"></path><path d="M900 499L900 402L773.5 463Z" fill="#777170" stroke="#777170"></path><path d="M900 339L900 228L806.5 314Z" fill="#524d4c" stroke="#524d4c"></path><path d="M900 119L831.5 68L761.5 245Z" fill="#645f5e" stroke="#645f5e"></path><path d="M0 283L156.5 318L118.5 173Z" fill="#201c1c" stroke="#201c1c"></path><path d="M0 203L0 283L118.5 173Z" fill="#8a8483" stroke="#8a8483"></path><path d="M749.5 600L900 499L773.5 463Z" fill="#201c1c" stroke="#201c1c"></path><path d="M245 0L134.5 0L242 58Z" fill="#c6c0be" stroke="#c6c0be"></path><path d="M96.5 134L0 203L118.5 173Z" fill="#302b2b" stroke="#302b2b"></path><path d="M0 479L67.5 600L121.5 526Z" fill="#777170" stroke="#777170"></path><path d="M121.5 526L67.5 600L235 600Z" fill="#9e9896" stroke="#9e9896"></path><path d="M0 84L0 203L96.5 134Z" fill="#201c1c" stroke="#201c1c"></path><path d="M0 374L0 479L150.5 411Z" fill="#302b2b" stroke="#302b2b"></path><path d="M900 0L809.5 0L831.5 68Z" fill="#b2aca9" stroke="#b2aca9"></path><path d="M831.5 68L809.5 0L715 78Z" fill="#8a8483" stroke="#8a8483"></path><path d="M900 228L900 119L761.5 245Z" fill="#8a8483" stroke="#8a8483"></path><path d="M749.5 600L900 600L900 499Z" fill="#524d4c" stroke="#524d4c"></path><path d="M134.5 0L0 84L96.5 134Z" fill="#645f5e" stroke="#645f5e"></path><path d="M0 479L0 600L67.5 600Z" fill="#302b2b" stroke="#302b2b"></path><path d="M900 119L900 0L831.5 68Z" fill="#777170" stroke="#777170"></path><path d="M134.5 0L0 0L0 84Z" fill="#777170" stroke="#777170"></path></g></svg>