<svg id="visual" viewBox="0 0 600 900" width="600" height="900" xmlns="http://www.w3.org/2000/svg" xmlns:xlink="http://www.w3.org/1999/xlink" version="1.1"><g stroke-width="1" stroke-linejoin="bevel"><path d="M288 495L276 604.5L400 603.5Z" fill="#dbd5d2" stroke="#dbd5d2"></path><path d="M276 604.5L317 690L400 603.5Z" fill="#302b2b" stroke="#302b2b"></path><path d="M485 659L481 565.5L400 603.5Z" fill="#777170" stroke="#777170"></path><path d="M400 603.5L400 410L288 495Z" fill="#c6c0be" stroke="#c6c0be"></path><path d="M479 453L400 410L400 603.5Z" fill="#8a8483" stroke="#8a8483"></path><path d="M276 604.5L220 679L317 690Z" fill="#524d4c" stroke="#524d4c"></path><path d="M70 590.5L220 679L276 604.5Z" fill="#b2aca9" stroke="#b2aca9"></path><path d="M481 565.5L479 453L400 603.5Z" fill="#b2aca9" stroke="#b2aca9"></path><path d="M317 690L485 659L400 603.5Z" fill="#8a8483" stroke="#8a8483"></path><path d="M481 565.5L600 566.5L479 453Z" fill="#645f5e" stroke="#645f5e"></path><path d="M254 313.5L139 454L288 495Z" fill="#413c3b" stroke="#413c3b"></path><path d="M288 495L139 454L276 604.5Z" fill="#302b2b" stroke="#302b2b"></path><path d="M503 310.5L400 340.5L400 410Z" fill="#dbd5d2" stroke="#dbd5d2"></path><path d="M400 410L254 313.5L288 495Z" fill="#9e9896" stroke="#9e9896"></path><path d="M243 811.5L373 786.5L317 690Z" fill="#413c3b" stroke="#413c3b"></path><path d="M317 690L373 786.5L485 659Z" fill="#b2aca9" stroke="#b2aca9"></path><path d="M400 340.5L254 313.5L400 410Z" fill="#645f5e" stroke="#645f5e"></path><path d="M600 673L600 566.5L485 659Z" fill="#8a8483" stroke="#8a8483"></path><path d="M485 659L600 566.5L481 565.5Z" fill="#8a8483" stroke="#8a8483"></path><path d="M479 453L503 310.5L400 410Z" fill="#413c3b" stroke="#413c3b"></path><path d="M139 454L70 590.5L276 604.5Z" fill="#c6c0be" stroke="#c6c0be"></path><path d="M220 679L243 811.5L317 690Z" fill="#777170" stroke="#777170"></path><path d="M170 806.5L243 811.5L220 679Z" fill="#c6c0be" stroke="#c6c0be"></path><path d="M327 900L449 809.5L373 786.5Z" fill="#8a8483" stroke="#8a8483"></path><path d="M373 786.5L449 809.5L485 659Z" fill="#9e9896" stroke="#9e9896"></path><path d="M600 760.5L600 673L485 659Z" fill="#dbd5d2" stroke="#dbd5d2"></path><path d="M600 398L503 310.5L479 453Z" fill="#645f5e" stroke="#645f5e"></path><path d="M400 340.5L400 238L254 313.5Z" fill="#8a8483" stroke="#8a8483"></path><path d="M72 705L170 806.5L220 679Z" fill="#8a8483" stroke="#8a8483"></path><path d="M70 590.5L72 705L220 679Z" fill="#524d4c" stroke="#524d4c"></path><path d="M600 566.5L600 398L479 453Z" fill="#8a8483" stroke="#8a8483"></path><path d="M503 310.5L400 238L400 340.5Z" fill="#c6c0be" stroke="#c6c0be"></path><path d="M600 398L600 356.5L503 310.5Z" fill="#8a8483" stroke="#8a8483"></path><path d="M503 310.5L472 185L400 238Z" fill="#201c1c" stroke="#201c1c"></path><path d="M449 809.5L600 760.5L485 659Z" fill="#524d4c" stroke="#524d4c"></path><path d="M0 461L0 601.5L70 590.5Z" fill="#b2aca9" stroke="#b2aca9"></path><path d="M70 590.5L0 675L72 705Z" fill="#9e9896" stroke="#9e9896"></path><path d="M0 461L70 590.5L139 454Z" fill="#9e9896" stroke="#9e9896"></path><path d="M226 900L327 900L243 811.5Z" fill="#302b2b" stroke="#302b2b"></path><path d="M243 811.5L327 900L373 786.5Z" fill="#dbd5d2" stroke="#dbd5d2"></path><path d="M449 809.5L482 900L600 760.5Z" fill="#524d4c" stroke="#524d4c"></path><path d="M246 192L107 296.5L254 313.5Z" fill="#777170" stroke="#777170"></path><path d="M254 313.5L107 296.5L139 454Z" fill="#dbd5d2" stroke="#dbd5d2"></path><path d="M0 374.5L0 461L139 454Z" fill="#524d4c" stroke="#524d4c"></path><path d="M0 601.5L0 675L70 590.5Z" fill="#524d4c" stroke="#524d4c"></path><path d="M0 793.5L148 900L170 806.5Z" fill="#9e9896" stroke="#9e9896"></path><path d="M148 900L226 900L170 806.5Z" fill="#201c1c" stroke="#201c1c"></path><path d="M170 806.5L226 900L243 811.5Z" fill="#b2aca9" stroke="#b2aca9"></path><path d="M327 900L482 900L449 809.5Z" fill="#201c1c" stroke="#201c1c"></path><path d="M400 238L246 192L254 313.5Z" fill="#b2aca9" stroke="#b2aca9"></path><path d="M107 296.5L0 374.5L139 454Z" fill="#777170" stroke="#777170"></path><path d="M90 251L0 374.5L107 296.5Z" fill="#201c1c" stroke="#201c1c"></path><path d="M246 192L90 251L107 296.5Z" fill="#9e9896" stroke="#9e9896"></path><path d="M0 793.5L170 806.5L72 705Z" fill="#201c1c" stroke="#201c1c"></path><path d="M600 231L472 185L503 310.5Z" fill="#9e9896" stroke="#9e9896"></path><path d="M400 238L312 128.5L246 192Z" fill="#9e9896" stroke="#9e9896"></path><path d="M0 675L0 793.5L72 705Z" fill="#b2aca9" stroke="#b2aca9"></path><path d="M600 356.5L600 231L503 310.5Z" fill="#302b2b" stroke="#302b2b"></path><path d="M472 185L312 128.5L400 238Z" fill="#dbd5d2" stroke="#dbd5d2"></path><path d="M0 155.5L0 213L90 251Z" fill="#524d4c" stroke="#524d4c"></path><path d="M482 900L600 900L600 760.5Z" fill="#524d4c" stroke="#524d4c"></path><path d="M600 231L502 118.5L472 185Z" fill="#8a8483" stroke="#8a8483"></path><path d="M472 185L502 118.5L312 128.5Z" fill="#9e9896" stroke="#9e9896"></path><path d="M162 96.5L90 251L246 192Z" fill="#dbd5d2" stroke="#dbd5d2"></path><path d="M90 251L0 213L0 374.5Z" fill="#9e9896" stroke="#9e9896"></path><path d="M0 793.5L0 900L148 900Z" fill="#c6c0be" stroke="#c6c0be"></path><path d="M317 0L287 68.5L312 128.5Z" fill="#201c1c" stroke="#201c1c"></path><path d="M312 128.5L287 68.5L246 192Z" fill="#c6c0be" stroke="#c6c0be"></path><path d="M287 68.5L162 96.5L246 192Z" fill="#524d4c" stroke="#524d4c"></path><path d="M600 231L600 117.5L502 118.5Z" fill="#8a8483" stroke="#8a8483"></path><path d="M441 0L317 0L312 128.5Z" fill="#dbd5d2" stroke="#dbd5d2"></path><path d="M162 96.5L0 155.5L90 251Z" fill="#777170" stroke="#777170"></path><path d="M287 68.5L190 0L162 96.5Z" fill="#201c1c" stroke="#201c1c"></path><path d="M162 96.5L71 0L0 155.5Z" fill="#b2aca9" stroke="#b2aca9"></path><path d="M441 0L312 128.5L502 118.5Z" fill="#777170" stroke="#777170"></path><path d="M600 0L441 0L502 118.5Z" fill="#b2aca9" stroke="#b2aca9"></path><path d="M317 0L190 0L287 68.5Z" fill="#777170" stroke="#777170"></path><path d="M600 117.5L600 0L502 118.5Z" fill="#413c3b" stroke="#413c3b"></path><path d="M190 0L71 0L162 96.5Z" fill="#dbd5d2" stroke="#dbd5d2"></path><path d="M71 0L0 0L0 155.5Z" fill="#dbd5d2" stroke="#dbd5d2"></path></g></svg>