<svg id="visual" viewBox="0 0 900 300" width="900" height="300" xmlns="http://www.w3.org/2000/svg" xmlns:xlink="http://www.w3.org/1999/xlink" version="1.1"><path d="M0 52L15 55C30 58 60 64 90 68.5C120 73 150 76 180 75.5C210 75 240 71 270 71.5C300 72 330 77 360 84C390 91 420 100 450 100.5C480 101 510 93 540 93C570 93 600 101 630 102C660 103 690 97 720 98.5C750 100 780 109 810 109.5C840 110 870 102 885 98L900 94L900 0L885 0C870 0 840 0 810 0C780 0 750 0 720 0C690 0 660 0 630 0C600 0 570 0 540 0C510 0 480 0 450 0C420 0 390 0 360 0C330 0 300 0 270 0C240 0 210 0 180 0C150 0 120 0 90 0C60 0 30 0 15 0L0 0Z" fill="#201c1c"></path><path d="M0 97L15 99C30 101 60 105 90 112.5C120 120 150 131 180 131C210 131 240 120 270 121.5C300 123 330 137 360 146C390 155 420 159 450 156C480 153 510 143 540 145C570 147 600 161 630 164C660 167 690 159 720 159C750 159 780 167 810 165.5C840 164 870 153 885 147.5L900 142L900 92L885 96C870 100 840 108 810 107.5C780 107 750 98 720 96.5C690 95 660 101 630 100C600 99 570 91 540 91C510 91 480 99 450 98.5C420 98 390 89 360 82C330 75 300 70 270 69.5C240 69 210 73 180 73.5C150 74 120 71 90 66.5C60 62 30 56 15 53L0 50Z" fill="#494444"></path><path d="M0 202L15 205.5C30 209 60 216 90 220C120 224 150 225 180 224.5C210 224 240 222 270 220.5C300 219 330 218 360 220.5C390 223 420 229 450 229C480 229 510 223 540 225.5C570 228 600 239 630 239C660 239 690 228 720 228C750 228 780 239 810 239C840 239 870 228 885 222.5L900 217L900 140L885 145.5C870 151 840 162 810 163.5C780 165 750 157 720 157C690 157 660 165 630 162C600 159 570 145 540 143C510 141 480 151 450 154C420 157 390 153 360 144C330 135 300 121 270 119.5C240 118 210 129 180 129C150 129 120 118 90 110.5C60 103 30 99 15 97L0 95Z" fill="#777170"></path><path d="M0 244L15 248C30 252 60 260 90 260.5C120 261 150 254 180 252.5C210 251 240 255 270 258C300 261 330 263 360 264C390 265 420 265 450 262C480 259 510 253 540 254C570 255 600 263 630 262C660 261 690 251 720 251C750 251 780 261 810 265C840 269 870 267 885 266L900 265L900 215L885 220.5C870 226 840 237 810 237C780 237 750 226 720 226C690 226 660 237 630 237C600 237 570 226 540 223.5C510 221 480 227 450 227C420 227 390 221 360 218.5C330 216 300 217 270 218.5C240 220 210 222 180 222.5C150 223 120 222 90 218C60 214 30 207 15 203.5L0 200Z" fill="#a8a2a0"></path><path d="M0 301L15 301C30 301 60 301 90 301C120 301 150 301 180 301C210 301 240 301 270 301C300 301 330 301 360 301C390 301 420 301 450 301C480 301 510 301 540 301C570 301 600 301 630 301C660 301 690 301 720 301C750 301 780 301 810 301C840 301 870 301 885 301L900 301L900 263L885 264C870 265 840 267 810 263C780 259 750 249 720 249C690 249 660 259 630 260C600 261 570 253 540 252C510 251 480 257 450 260C420 263 390 263 360 262C330 261 300 259 270 256C240 253 210 249 180 250.5C150 252 120 259 90 258.5C60 258 30 250 15 246L0 242Z" fill="#dbd5d2"></path></svg>