<svg id="visual" viewBox="0 0 1500 1000" width="1500" height="1000" xmlns="http://www.w3.org/2000/svg" xmlns:xlink="http://www.w3.org/1999/xlink" version="1.1"><path d="M0 81L41.7 111C83.3 141 166.7 201 250 216C333.3 231 416.7 201 500 169.3C583.3 137.7 666.7 104.3 750 97.7C833.3 91 916.7 111 1000 112.7C1083.3 114.3 1166.7 97.7 1250 112.7C1333.3 127.7 1416.7 174.3 1458.3 197.7L1500 221L1500 0L1458.3 0C1416.7 0 1333.3 0 1250 0C1166.7 0 1083.3 0 1000 0C916.7 0 833.3 0 750 0C666.7 0 583.3 0 500 0C416.7 0 333.3 0 250 0C166.7 0 83.3 0 41.7 0L0 0Z" fill="#dbd5d2"></path><path d="M0 271L41.7 282.7C83.3 294.3 166.7 317.7 250 329.3C333.3 341 416.7 341 500 326C583.3 311 666.7 281 750 259.3C833.3 237.7 916.7 224.3 1000 239.3C1083.3 254.3 1166.7 297.7 1250 321C1333.3 344.3 1416.7 347.7 1458.3 349.3L1500 351L1500 219L1458.3 195.7C1416.7 172.3 1333.3 125.7 1250 110.7C1166.7 95.7 1083.3 112.3 1000 110.7C916.7 109 833.3 89 750 95.7C666.7 102.3 583.3 135.7 500 167.3C416.7 199 333.3 229 250 214C166.7 199 83.3 139 41.7 109L0 79Z" fill="#c4bebb"></path><path d="M0 311L41.7 327.7C83.3 344.3 166.7 377.7 250 386C333.3 394.3 416.7 377.7 500 357.7C583.3 337.7 666.7 314.3 750 301C833.3 287.7 916.7 284.3 1000 299.3C1083.3 314.3 1166.7 347.7 1250 366C1333.3 384.3 1416.7 387.7 1458.3 389.3L1500 391L1500 349L1458.3 347.3C1416.7 345.7 1333.3 342.3 1250 319C1166.7 295.7 1083.3 252.3 1000 237.3C916.7 222.3 833.3 235.7 750 257.3C666.7 279 583.3 309 500 324C416.7 339 333.3 339 250 327.3C166.7 315.7 83.3 292.3 41.7 280.7L0 269Z" fill="#ada7a5"></path><path d="M0 381L41.7 394.3C83.3 407.7 166.7 434.3 250 441C333.3 447.7 416.7 434.3 500 412.7C583.3 391 666.7 361 750 346C833.3 331 916.7 331 1000 349.3C1083.3 367.7 1166.7 404.3 1250 429.3C1333.3 454.3 1416.7 467.7 1458.3 474.3L1500 481L1500 389L1458.3 387.3C1416.7 385.7 1333.3 382.3 1250 364C1166.7 345.7 1083.3 312.3 1000 297.3C916.7 282.3 833.3 285.7 750 299C666.7 312.3 583.3 335.7 500 355.7C416.7 375.7 333.3 392.3 250 384C166.7 375.7 83.3 342.3 41.7 325.7L0 309Z" fill="#97918f"></path><path d="M0 521L41.7 536C83.3 551 166.7 581 250 587.7C333.3 594.3 416.7 577.7 500 551C583.3 524.3 666.7 487.7 750 467.7C833.3 447.7 916.7 444.3 1000 449.3C1083.3 454.3 1166.7 467.7 1250 487.7C1333.3 507.7 1416.7 534.3 1458.3 547.7L1500 561L1500 479L1458.3 472.3C1416.7 465.7 1333.3 452.3 1250 427.3C1166.7 402.3 1083.3 365.7 1000 347.3C916.7 329 833.3 329 750 344C666.7 359 583.3 389 500 410.7C416.7 432.3 333.3 445.7 250 439C166.7 432.3 83.3 405.7 41.7 392.3L0 379Z" fill="#827c7a"></path><path d="M0 761L41.7 757.7C83.3 754.3 166.7 747.7 250 746C333.3 744.3 416.7 747.7 500 749.3C583.3 751 666.7 751 750 741C833.3 731 916.7 711 1000 722.7C1083.3 734.3 1166.7 777.7 1250 784.3C1333.3 791 1416.7 761 1458.3 746L1500 731L1500 559L1458.3 545.7C1416.7 532.3 1333.3 505.7 1250 485.7C1166.7 465.7 1083.3 452.3 1000 447.3C916.7 442.3 833.3 445.7 750 465.7C666.7 485.7 583.3 522.3 500 549C416.7 575.7 333.3 592.3 250 585.7C166.7 579 83.3 549 41.7 534L0 519Z" fill="#6d6766"></path><path d="M0 841L41.7 831C83.3 821 166.7 801 250 789.3C333.3 777.7 416.7 774.3 500 776C583.3 777.7 666.7 784.3 750 781C833.3 777.7 916.7 764.3 1000 774.3C1083.3 784.3 1166.7 817.7 1250 822.7C1333.3 827.7 1416.7 804.3 1458.3 792.7L1500 781L1500 729L1458.3 744C1416.7 759 1333.3 789 1250 782.3C1166.7 775.7 1083.3 732.3 1000 720.7C916.7 709 833.3 729 750 739C666.7 749 583.3 749 500 747.3C416.7 745.7 333.3 742.3 250 744C166.7 745.7 83.3 752.3 41.7 755.7L0 759Z" fill="#585352"></path><path d="M0 881L41.7 876C83.3 871 166.7 861 250 847.7C333.3 834.3 416.7 817.7 500 817.7C583.3 817.7 666.7 834.3 750 831C833.3 827.7 916.7 804.3 1000 812.7C1083.3 821 1166.7 861 1250 864.3C1333.3 867.7 1416.7 834.3 1458.3 817.7L1500 801L1500 779L1458.3 790.7C1416.7 802.3 1333.3 825.7 1250 820.7C1166.7 815.7 1083.3 782.3 1000 772.3C916.7 762.3 833.3 775.7 750 779C666.7 782.3 583.3 775.7 500 774C416.7 772.3 333.3 775.7 250 787.3C166.7 799 83.3 819 41.7 829L0 839Z" fill="#44403f"></path><path d="M0 931L41.7 924.3C83.3 917.7 166.7 904.3 250 897.7C333.3 891 416.7 891 500 891C583.3 891 666.7 891 750 889.3C833.3 887.7 916.7 884.3 1000 891C1083.3 897.7 1166.7 914.3 1250 912.7C1333.3 911 1416.7 891 1458.3 881L1500 871L1500 799L1458.3 815.7C1416.7 832.3 1333.3 865.7 1250 862.3C1166.7 859 1083.3 819 1000 810.7C916.7 802.3 833.3 825.7 750 829C666.7 832.3 583.3 815.7 500 815.7C416.7 815.7 333.3 832.3 250 845.7C166.7 859 83.3 869 41.7 874L0 879Z" fill="#322d2d"></path><path d="M0 1001L41.7 1001C83.3 1001 166.7 1001 250 1001C333.3 1001 416.7 1001 500 1001C583.3 1001 666.7 1001 750 1001C833.3 1001 916.7 1001 1000 1001C1083.3 1001 1166.7 1001 1250 1001C1333.3 1001 1416.7 1001 1458.3 1001L1500 1001L1500 869L1458.3 879C1416.7 889 1333.3 909 1250 910.7C1166.7 912.3 1083.3 895.7 1000 889C916.7 882.3 833.3 885.7 750 887.3C666.7 889 583.3 889 500 889C416.7 889 333.3 889 250 895.7C166.7 902.3 83.3 915.7 41.7 922.3L0 929Z" fill="#201c1c"></path></svg>