<svg id="visual" viewBox="0 0 900 50" width="900" height="50" xmlns="http://www.w3.org/2000/svg" xmlns:xlink="http://www.w3.org/1999/xlink" version="1.1"><path d="M0 7L13.7 7C27.3 7 54.7 7 82 7.3C109.3 7.7 136.7 8.3 163.8 8.3C191 8.3 218 7.7 245.2 8C272.3 8.3 299.7 9.7 327 9.3C354.3 9 381.7 7 409 6C436.3 5 463.7 5 491 5.7C518.3 6.3 545.7 7.7 573 7.8C600.3 8 627.7 7 654.8 6.3C682 5.7 709 5.3 736.2 5.8C763.3 6.3 790.7 7.7 818 8.2C845.3 8.7 872.7 8.3 886.3 8.2L900 8L900 0L886.3 0C872.7 0 845.3 0 818 0C790.7 0 763.3 0 736.2 0C709 0 682 0 654.8 0C627.7 0 600.3 0 573 0C545.7 0 518.3 0 491 0C463.7 0 436.3 0 409 0C381.7 0 354.3 0 327 0C299.7 0 272.3 0 245.2 0C218 0 191 0 163.8 0C136.7 0 109.3 0 82 0C54.7 0 27.3 0 13.7 0L0 0Z" fill="#201c1c"></path><path d="M0 28L13.7 26.2C27.3 24.3 54.7 20.7 82 19.3C109.3 18 136.7 19 163.8 20.2C191 21.3 218 22.7 245.2 22.7C272.3 22.7 299.7 21.3 327 19.8C354.3 18.3 381.7 16.7 409 18.3C436.3 20 463.7 25 491 25.5C518.3 26 545.7 22 573 20C600.3 18 627.7 18 654.8 17.8C682 17.7 709 17.3 736.2 17.3C763.3 17.3 790.7 17.7 818 18.3C845.3 19 872.7 20 886.3 20.5L900 21L900 6L886.3 6.2C872.7 6.3 845.3 6.7 818 6.2C790.7 5.7 763.3 4.3 736.2 3.8C709 3.3 682 3.7 654.8 4.3C627.7 5 600.3 6 573 5.8C545.7 5.7 518.3 4.3 491 3.7C463.7 3 436.3 3 409 4C381.7 5 354.3 7 327 7.3C299.7 7.7 272.3 6.3 245.2 6C218 5.7 191 6.3 163.8 6.3C136.7 6.3 109.3 5.7 82 5.3C54.7 5 27.3 5 13.7 5L0 5Z" fill="#494444"></path><path d="M0 35L13.7 32.8C27.3 30.7 54.7 26.3 82 24.8C109.3 23.3 136.7 24.7 163.8 25.5C191 26.3 218 26.7 245.2 26.7C272.3 26.7 299.7 26.3 327 25.2C354.3 24 381.7 22 409 23.8C436.3 25.7 463.7 31.3 491 32C518.3 32.7 545.7 28.3 573 25.7C600.3 23 627.7 22 654.8 21.7C682 21.3 709 21.7 736.2 22C763.3 22.3 790.7 22.7 818 23.8C845.3 25 872.7 27 886.3 28L900 29L900 19L886.3 18.5C872.7 18 845.3 17 818 16.3C790.7 15.7 763.3 15.3 736.2 15.3C709 15.3 682 15.7 654.8 15.8C627.7 16 600.3 16 573 18C545.7 20 518.3 24 491 23.5C463.7 23 436.3 18 409 16.3C381.7 14.7 354.3 16.3 327 17.8C299.7 19.3 272.3 20.7 245.2 20.7C218 20.7 191 19.3 163.8 18.2C136.7 17 109.3 16 82 17.3C54.7 18.7 27.3 22.3 13.7 24.2L0 26Z" fill="#777170"></path><path d="M0 41L13.7 39.8C27.3 38.7 54.7 36.3 82 35.7C109.3 35 136.7 36 163.8 36.7C191 37.3 218 37.7 245.2 37C272.3 36.3 299.7 34.7 327 32.7C354.3 30.7 381.7 28.3 409 30C436.3 31.7 463.7 37.3 491 38.2C518.3 39 545.7 35 573 32.7C600.3 30.3 627.7 29.7 654.8 29.3C682 29 709 29 736.2 29.5C763.3 30 790.7 31 818 33C845.3 35 872.7 38 886.3 39.5L900 41L900 27L886.3 26C872.7 25 845.3 23 818 21.8C790.7 20.7 763.3 20.3 736.2 20C709 19.7 682 19.3 654.8 19.7C627.7 20 600.3 21 573 23.7C545.7 26.3 518.3 30.7 491 30C463.7 29.3 436.3 23.7 409 21.8C381.7 20 354.3 22 327 23.2C299.7 24.3 272.3 24.7 245.2 24.7C218 24.7 191 24.3 163.8 23.5C136.7 22.7 109.3 21.3 82 22.8C54.7 24.3 27.3 28.7 13.7 30.8L0 33Z" fill="#a8a2a0"></path><path d="M0 51L13.7 51C27.3 51 54.7 51 82 51C109.3 51 136.7 51 163.8 51C191 51 218 51 245.2 51C272.3 51 299.7 51 327 51C354.3 51 381.7 51 409 51C436.3 51 463.7 51 491 51C518.3 51 545.7 51 573 51C600.3 51 627.7 51 654.8 51C682 51 709 51 736.2 51C763.3 51 790.7 51 818 51C845.3 51 872.7 51 886.3 51L900 51L900 39L886.3 37.5C872.7 36 845.3 33 818 31C790.7 29 763.3 28 736.2 27.5C709 27 682 27 654.8 27.3C627.7 27.7 600.3 28.3 573 30.7C545.7 33 518.3 37 491 36.2C463.7 35.3 436.3 29.7 409 28C381.7 26.3 354.3 28.7 327 30.7C299.7 32.7 272.3 34.3 245.2 35C218 35.7 191 35.3 163.8 34.7C136.7 34 109.3 33 82 33.7C54.7 34.3 27.3 36.7 13.7 37.8L0 39Z" fill="#dbd5d2"></path></svg>