<svg id="visual" viewBox="0 0 900 300" width="900" height="300" xmlns="http://www.w3.org/2000/svg" xmlns:xlink="http://www.w3.org/1999/xlink" version="1.1"><path d="M0 34L13.7 34.5C27.3 35 54.7 36 82 34C109.3 32 136.7 27 163.8 28C191 29 218 36 245.2 35.5C272.3 35 299.7 27 327 24.5C354.3 22 381.7 25 409 27C436.3 29 463.7 30 491 30C518.3 30 545.7 29 573 27.5C600.3 26 627.7 24 654.8 26C682 28 709 34 736.2 36C763.3 38 790.7 36 818 33C845.3 30 872.7 26 886.3 24L900 22L900 0L886.3 0C872.7 0 845.3 0 818 0C790.7 0 763.3 0 736.2 0C709 0 682 0 654.8 0C627.7 0 600.3 0 573 0C545.7 0 518.3 0 491 0C463.7 0 436.3 0 409 0C381.7 0 354.3 0 327 0C299.7 0 272.3 0 245.2 0C218 0 191 0 163.8 0C136.7 0 109.3 0 82 0C54.7 0 27.3 0 13.7 0L0 0Z" fill="#201c1c"></path><path d="M0 55L13.7 58.5C27.3 62 54.7 69 82 70.5C109.3 72 136.7 68 163.8 67.5C191 67 218 70 245.2 70C272.3 70 299.7 67 327 67C354.3 67 381.7 70 409 68.5C436.3 67 463.7 61 491 59.5C518.3 58 545.7 61 573 61C600.3 61 627.7 58 654.8 57.5C682 57 709 59 736.2 64C763.3 69 790.7 77 818 79.5C845.3 82 872.7 79 886.3 77.5L900 76L900 20L886.3 22C872.7 24 845.3 28 818 31C790.7 34 763.3 36 736.2 34C709 32 682 26 654.8 24C627.7 22 600.3 24 573 25.5C545.7 27 518.3 28 491 28C463.7 28 436.3 27 409 25C381.7 23 354.3 20 327 22.5C299.7 25 272.3 33 245.2 33.5C218 34 191 27 163.8 26C136.7 25 109.3 30 82 32C54.7 34 27.3 33 13.7 32.5L0 32Z" fill="#342e2d"></path><path d="M0 118L13.7 119C27.3 120 54.7 122 82 118C109.3 114 136.7 104 163.8 104C191 104 218 114 245.2 117.5C272.3 121 299.7 118 327 114C354.3 110 381.7 105 409 102C436.3 99 463.7 98 491 97.5C518.3 97 545.7 97 573 99.5C600.3 102 627.7 107 654.8 111.5C682 116 709 120 736.2 121.5C763.3 123 790.7 122 818 120C845.3 118 872.7 115 886.3 113.5L900 112L900 74L886.3 75.5C872.7 77 845.3 80 818 77.5C790.7 75 763.3 67 736.2 62C709 57 682 55 654.8 55.5C627.7 56 600.3 59 573 59C545.7 59 518.3 56 491 57.5C463.7 59 436.3 65 409 66.5C381.7 68 354.3 65 327 65C299.7 65 272.3 68 245.2 68C218 68 191 65 163.8 65.5C136.7 66 109.3 70 82 68.5C54.7 67 27.3 60 13.7 56.5L0 53Z" fill="#49413e"></path><path d="M0 190L13.7 186.5C27.3 183 54.7 176 82 176C109.3 176 136.7 183 163.8 190.5C191 198 218 206 245.2 210C272.3 214 299.7 214 327 212.5C354.3 211 381.7 208 409 203.5C436.3 199 463.7 193 491 190.5C518.3 188 545.7 189 573 184C600.3 179 627.7 168 654.8 166C682 164 709 171 736.2 179.5C763.3 188 790.7 198 818 205C845.3 212 872.7 216 886.3 218L900 220L900 110L886.3 111.5C872.7 113 845.3 116 818 118C790.7 120 763.3 121 736.2 119.5C709 118 682 114 654.8 109.5C627.7 105 600.3 100 573 97.5C545.7 95 518.3 95 491 95.5C463.7 96 436.3 97 409 100C381.7 103 354.3 108 327 112C299.7 116 272.3 119 245.2 115.5C218 112 191 102 163.8 102C136.7 102 109.3 112 82 116C54.7 120 27.3 118 13.7 117L0 116Z" fill="#5e5550"></path><path d="M0 265L13.7 265C27.3 265 54.7 265 82 266C109.3 267 136.7 269 163.8 269.5C191 270 218 269 245.2 270C272.3 271 299.7 274 327 273C354.3 272 381.7 267 409 264.5C436.3 262 463.7 262 491 264C518.3 266 545.7 270 573 271.5C600.3 273 627.7 272 654.8 272C682 272 709 273 736.2 274.5C763.3 276 790.7 278 818 277.5C845.3 277 872.7 274 886.3 272.5L900 271L900 218L886.3 216C872.7 214 845.3 210 818 203C790.7 196 763.3 186 736.2 177.5C709 169 682 162 654.8 164C627.7 166 600.3 177 573 182C545.7 187 518.3 186 491 188.5C463.7 191 436.3 197 409 201.5C381.7 206 354.3 209 327 210.5C299.7 212 272.3 212 245.2 208C218 204 191 196 163.8 188.5C136.7 181 109.3 174 82 174C54.7 174 27.3 181 13.7 184.5L0 188Z" fill="#736b63"></path><path d="M0 301L13.7 301C27.3 301 54.7 301 82 301C109.3 301 136.7 301 163.8 301C191 301 218 301 245.2 301C272.3 301 299.7 301 327 301C354.3 301 381.7 301 409 301C436.3 301 463.7 301 491 301C518.3 301 545.7 301 573 301C600.3 301 627.7 301 654.8 301C682 301 709 301 736.2 301C763.3 301 790.7 301 818 301C845.3 301 872.7 301 886.3 301L900 301L900 269L886.3 270.5C872.7 272 845.3 275 818 275.5C790.7 276 763.3 274 736.2 272.5C709 271 682 270 654.8 270C627.7 270 600.3 271 573 269.5C545.7 268 518.3 264 491 262C463.7 260 436.3 260 409 262.5C381.7 265 354.3 270 327 271C299.7 272 272.3 269 245.2 268C218 267 191 268 163.8 267.5C136.7 267 109.3 265 82 264C54.7 263 27.3 263 13.7 263L0 263Z" fill="#888277"></path></svg>