<svg id="visual" viewBox="0 0 1500 1000" width="1500" height="1000" xmlns="http://www.w3.org/2000/svg" xmlns:xlink="http://www.w3.org/1999/xlink" version="1.1"><path d="M0 171L22.7 182.7C45.3 194.3 90.7 217.7 136.2 252.7C181.7 287.7 227.3 334.3 272.8 361C318.3 387.7 363.7 394.3 409 394.3C454.3 394.3 499.7 387.7 545.2 357.7C590.7 327.7 636.3 274.3 681.8 249.3C727.3 224.3 772.7 227.7 818.2 279.3C863.7 331 909.3 431 954.8 437.7C1000.3 444.3 1045.7 357.7 1091 304.3C1136.3 251 1181.7 231 1227.2 237.7C1272.7 244.3 1318.3 277.7 1363.8 291C1409.3 304.3 1454.7 297.7 1477.3 294.3L1500 291L1500 0L1477.3 0C1454.7 0 1409.3 0 1363.8 0C1318.3 0 1272.7 0 1227.2 0C1181.7 0 1136.3 0 1091 0C1045.7 0 1000.3 0 954.8 0C909.3 0 863.7 0 818.2 0C772.7 0 727.3 0 681.8 0C636.3 0 590.7 0 545.2 0C499.7 0 454.3 0 409 0C363.7 0 318.3 0 272.8 0C227.3 0 181.7 0 136.2 0C90.7 0 45.3 0 22.7 0L0 0Z" fill="#dbd5d2"></path><path d="M0 361L22.7 372.7C45.3 384.3 90.7 407.7 136.2 444.3C181.7 481 227.3 531 272.8 542.7C318.3 554.3 363.7 527.7 409 524.3C454.3 521 499.7 541 545.2 511C590.7 481 636.3 401 681.8 371C727.3 341 772.7 361 818.2 412.7C863.7 464.3 909.3 547.7 954.8 547.7C1000.3 547.7 1045.7 464.3 1091 422.7C1136.3 381 1181.7 381 1227.2 409.3C1272.7 437.7 1318.3 494.3 1363.8 517.7C1409.3 541 1454.7 531 1477.3 526L1500 521L1500 289L1477.3 292.3C1454.7 295.7 1409.3 302.3 1363.8 289C1318.3 275.7 1272.7 242.3 1227.2 235.7C1181.7 229 1136.3 249 1091 302.3C1045.7 355.7 1000.3 442.3 954.8 435.7C909.3 429 863.7 329 818.2 277.3C772.7 225.7 727.3 222.3 681.8 247.3C636.3 272.3 590.7 325.7 545.2 355.7C499.7 385.7 454.3 392.3 409 392.3C363.7 392.3 318.3 385.7 272.8 359C227.3 332.3 181.7 285.7 136.2 250.7C90.7 215.7 45.3 192.3 22.7 180.7L0 169Z" fill="#a8a2a0"></path><path d="M0 531L22.7 547.7C45.3 564.3 90.7 597.7 136.2 624.3C181.7 651 227.3 671 272.8 672.7C318.3 674.3 363.7 657.7 409 649.3C454.3 641 499.7 641 545.2 604.3C590.7 567.7 636.3 494.3 681.8 469.3C727.3 444.3 772.7 467.7 818.2 517.7C863.7 567.7 909.3 644.3 954.8 641C1000.3 637.7 1045.7 554.3 1091 507.7C1136.3 461 1181.7 451 1227.2 487.7C1272.7 524.3 1318.3 607.7 1363.8 654.3C1409.3 701 1454.7 711 1477.3 716L1500 721L1500 519L1477.3 524C1454.7 529 1409.3 539 1363.8 515.7C1318.3 492.3 1272.7 435.7 1227.2 407.3C1181.7 379 1136.3 379 1091 420.7C1045.7 462.3 1000.3 545.7 954.8 545.7C909.3 545.7 863.7 462.3 818.2 410.7C772.7 359 727.3 339 681.8 369C636.3 399 590.7 479 545.2 509C499.7 539 454.3 519 409 522.3C363.7 525.7 318.3 552.3 272.8 540.7C227.3 529 181.7 479 136.2 442.3C90.7 405.7 45.3 382.3 22.7 370.7L0 359Z" fill="#777170"></path><path d="M0 661L22.7 679.3C45.3 697.7 90.7 734.3 136.2 764.3C181.7 794.3 227.3 817.7 272.8 814.3C318.3 811 363.7 781 409 757.7C454.3 734.3 499.7 717.7 545.2 686C590.7 654.3 636.3 607.7 681.8 597.7C727.3 587.7 772.7 614.3 818.2 654.3C863.7 694.3 909.3 747.7 954.8 731C1000.3 714.3 1045.7 627.7 1091 596C1136.3 564.3 1181.7 587.7 1227.2 641C1272.7 694.3 1318.3 777.7 1363.8 811C1409.3 844.3 1454.7 827.7 1477.3 819.3L1500 811L1500 719L1477.3 714C1454.7 709 1409.3 699 1363.8 652.3C1318.3 605.7 1272.7 522.3 1227.2 485.7C1181.7 449 1136.3 459 1091 505.7C1045.7 552.3 1000.3 635.7 954.8 639C909.3 642.3 863.7 565.7 818.2 515.7C772.7 465.7 727.3 442.3 681.8 467.3C636.3 492.3 590.7 565.7 545.2 602.3C499.7 639 454.3 639 409 647.3C363.7 655.7 318.3 672.3 272.8 670.7C227.3 669 181.7 649 136.2 622.3C90.7 595.7 45.3 562.3 22.7 545.7L0 529Z" fill="#494444"></path><path d="M0 1001L22.7 1001C45.3 1001 90.7 1001 136.2 1001C181.7 1001 227.3 1001 272.8 1001C318.3 1001 363.7 1001 409 1001C454.3 1001 499.7 1001 545.2 1001C590.7 1001 636.3 1001 681.8 1001C727.3 1001 772.7 1001 818.2 1001C863.7 1001 909.3 1001 954.8 1001C1000.3 1001 1045.7 1001 1091 1001C1136.3 1001 1181.7 1001 1227.2 1001C1272.7 1001 1318.3 1001 1363.8 1001C1409.3 1001 1454.7 1001 1477.3 1001L1500 1001L1500 809L1477.3 817.3C1454.7 825.7 1409.3 842.3 1363.8 809C1318.3 775.7 1272.7 692.3 1227.2 639C1181.7 585.7 1136.3 562.3 1091 594C1045.7 625.7 1000.3 712.3 954.8 729C909.3 745.7 863.7 692.3 818.2 652.3C772.7 612.3 727.3 585.7 681.8 595.7C636.3 605.7 590.7 652.3 545.2 684C499.7 715.7 454.3 732.3 409 755.7C363.7 779 318.3 809 272.8 812.3C227.3 815.7 181.7 792.3 136.2 762.3C90.7 732.3 45.3 695.7 22.7 677.3L0 659Z" fill="#201c1c"></path></svg>