<svg id="visual" viewBox="0 0 1500 1000" width="1500" height="1000" xmlns="http://www.w3.org/2000/svg" xmlns:xlink="http://www.w3.org/1999/xlink" version="1.1"><path d="M0 171L22.7 161C45.3 151 90.7 131 136.2 136C181.7 141 227.3 171 272.8 187.7C318.3 204.3 363.7 207.7 409 196C454.3 184.3 499.7 157.7 545.2 142.7C590.7 127.7 636.3 124.3 681.8 114.3C727.3 104.3 772.7 87.7 818.2 79.3C863.7 71 909.3 71 954.8 87.7C1000.3 104.3 1045.7 137.7 1091 142.7C1136.3 147.7 1181.7 124.3 1227.2 117.7C1272.7 111 1318.3 121 1363.8 124.3C1409.3 127.7 1454.7 124.3 1477.3 122.7L1500 121L1500 0L1477.3 0C1454.7 0 1409.3 0 1363.8 0C1318.3 0 1272.7 0 1227.2 0C1181.7 0 1136.3 0 1091 0C1045.7 0 1000.3 0 954.8 0C909.3 0 863.7 0 818.2 0C772.7 0 727.3 0 681.8 0C636.3 0 590.7 0 545.2 0C499.7 0 454.3 0 409 0C363.7 0 318.3 0 272.8 0C227.3 0 181.7 0 136.2 0C90.7 0 45.3 0 22.7 0L0 0Z" fill="#dbd5d2"></path><path d="M0 331L22.7 311C45.3 291 90.7 251 136.2 239.3C181.7 227.7 227.3 244.3 272.8 259.3C318.3 274.3 363.7 287.7 409 282.7C454.3 277.7 499.7 254.3 545.2 241C590.7 227.7 636.3 224.3 681.8 216C727.3 207.7 772.7 194.3 818.2 184.3C863.7 174.3 909.3 167.7 954.8 192.7C1000.3 217.7 1045.7 274.3 1091 279.3C1136.3 284.3 1181.7 237.7 1227.2 232.7C1272.7 227.7 1318.3 264.3 1363.8 262.7C1409.3 261 1454.7 221 1477.3 201L1500 181L1500 119L1477.3 120.7C1454.7 122.3 1409.3 125.7 1363.8 122.3C1318.3 119 1272.7 109 1227.2 115.7C1181.7 122.3 1136.3 145.7 1091 140.7C1045.7 135.7 1000.3 102.3 954.8 85.7C909.3 69 863.7 69 818.2 77.3C772.7 85.7 727.3 102.3 681.8 112.3C636.3 122.3 590.7 125.7 545.2 140.7C499.7 155.7 454.3 182.3 409 194C363.7 205.7 318.3 202.3 272.8 185.7C227.3 169 181.7 139 136.2 134C90.7 129 45.3 149 22.7 159L0 169Z" fill="#a8a2a0"></path><path d="M0 511L22.7 497.7C45.3 484.3 90.7 457.7 136.2 439.3C181.7 421 227.3 411 272.8 419.3C318.3 427.7 363.7 454.3 409 471C454.3 487.7 499.7 494.3 545.2 471C590.7 447.7 636.3 394.3 681.8 379.3C727.3 364.3 772.7 387.7 818.2 396C863.7 404.3 909.3 397.7 954.8 417.7C1000.3 437.7 1045.7 484.3 1091 481C1136.3 477.7 1181.7 424.3 1227.2 419.3C1272.7 414.3 1318.3 457.7 1363.8 471C1409.3 484.3 1454.7 467.7 1477.3 459.3L1500 451L1500 179L1477.3 199C1454.7 219 1409.3 259 1363.8 260.7C1318.3 262.3 1272.7 225.7 1227.2 230.7C1181.7 235.7 1136.3 282.3 1091 277.3C1045.7 272.3 1000.3 215.7 954.8 190.7C909.3 165.7 863.7 172.3 818.2 182.3C772.7 192.3 727.3 205.7 681.8 214C636.3 222.3 590.7 225.7 545.2 239C499.7 252.3 454.3 275.7 409 280.7C363.7 285.7 318.3 272.3 272.8 257.3C227.3 242.3 181.7 225.7 136.2 237.3C90.7 249 45.3 289 22.7 309L0 329Z" fill="#777170"></path><path d="M0 661L22.7 677.7C45.3 694.3 90.7 727.7 136.2 724.3C181.7 721 227.3 681 272.8 699.3C318.3 717.7 363.7 794.3 409 809.3C454.3 824.3 499.7 777.7 545.2 771C590.7 764.3 636.3 797.7 681.8 802.7C727.3 807.7 772.7 784.3 818.2 782.7C863.7 781 909.3 801 954.8 789.3C1000.3 777.7 1045.7 734.3 1091 691C1136.3 647.7 1181.7 604.3 1227.2 634.3C1272.7 664.3 1318.3 767.7 1363.8 802.7C1409.3 837.7 1454.7 804.3 1477.3 787.7L1500 771L1500 449L1477.3 457.3C1454.7 465.7 1409.3 482.3 1363.8 469C1318.3 455.7 1272.7 412.3 1227.2 417.3C1181.7 422.3 1136.3 475.7 1091 479C1045.7 482.3 1000.3 435.7 954.8 415.7C909.3 395.7 863.7 402.3 818.2 394C772.7 385.7 727.3 362.3 681.8 377.3C636.3 392.3 590.7 445.7 545.2 469C499.7 492.3 454.3 485.7 409 469C363.7 452.3 318.3 425.7 272.8 417.3C227.3 409 181.7 419 136.2 437.3C90.7 455.7 45.3 482.3 22.7 495.7L0 509Z" fill="#494444"></path><path d="M0 1001L22.7 1001C45.3 1001 90.7 1001 136.2 1001C181.7 1001 227.3 1001 272.8 1001C318.3 1001 363.7 1001 409 1001C454.3 1001 499.7 1001 545.2 1001C590.7 1001 636.3 1001 681.8 1001C727.3 1001 772.7 1001 818.2 1001C863.7 1001 909.3 1001 954.8 1001C1000.3 1001 1045.7 1001 1091 1001C1136.3 1001 1181.7 1001 1227.2 1001C1272.7 1001 1318.3 1001 1363.8 1001C1409.3 1001 1454.7 1001 1477.3 1001L1500 1001L1500 769L1477.3 785.7C1454.7 802.3 1409.3 835.7 1363.8 800.7C1318.3 765.7 1272.7 662.3 1227.2 632.3C1181.7 602.3 1136.3 645.7 1091 689C1045.7 732.3 1000.3 775.7 954.8 787.3C909.3 799 863.7 779 818.2 780.7C772.7 782.3 727.3 805.7 681.8 800.7C636.3 795.7 590.7 762.3 545.2 769C499.7 775.7 454.3 822.3 409 807.3C363.7 792.3 318.3 715.7 272.8 697.3C227.3 679 181.7 719 136.2 722.3C90.7 725.7 45.3 692.3 22.7 675.7L0 659Z" fill="#201c1c"></path></svg>