<svg id="visual" viewBox="0 0 900 150" width="900" height="150" xmlns="http://www.w3.org/2000/svg" xmlns:xlink="http://www.w3.org/1999/xlink" version="1.1"><path d="M0 18L13.7 18.2C27.3 18.3 54.7 18.7 82 19.7C109.3 20.7 136.7 22.3 163.8 22.2C191 22 218 20 245.2 21C272.3 22 299.7 26 327 25C354.3 24 381.7 18 409 15.2C436.3 12.3 463.7 12.7 491 14.7C518.3 16.7 545.7 20.3 573 20.8C600.3 21.3 627.7 18.7 654.8 16.7C682 14.7 709 13.3 736.2 14.7C763.3 16 790.7 20 818 21.5C845.3 23 872.7 22 886.3 21.5L900 21L900 0L886.3 0C872.7 0 845.3 0 818 0C790.7 0 763.3 0 736.2 0C709 0 682 0 654.8 0C627.7 0 600.3 0 573 0C545.7 0 518.3 0 491 0C463.7 0 436.3 0 409 0C381.7 0 354.3 0 327 0C299.7 0 272.3 0 245.2 0C218 0 191 0 163.8 0C136.7 0 109.3 0 82 0C54.7 0 27.3 0 13.7 0L0 0Z" fill="#201c1c"></path><path d="M0 82L13.7 76.5C27.3 71 54.7 60 82 56C109.3 52 136.7 55 163.8 58.5C191 62 218 66 245.2 65.8C272.3 65.7 299.7 61.3 327 56.8C354.3 52.3 381.7 47.7 409 52.8C436.3 58 463.7 73 491 74.5C518.3 76 545.7 64 573 57.8C600.3 51.7 627.7 51.3 654.8 50.7C682 50 709 49 736.2 49C763.3 49 790.7 50 818 52.2C845.3 54.3 872.7 57.7 886.3 59.3L900 61L900 19L886.3 19.5C872.7 20 845.3 21 818 19.5C790.7 18 763.3 14 736.2 12.7C709 11.3 682 12.7 654.8 14.7C627.7 16.7 600.3 19.3 573 18.8C545.7 18.3 518.3 14.7 491 12.7C463.7 10.7 436.3 10.3 409 13.2C381.7 16 354.3 22 327 23C299.7 24 272.3 20 245.2 19C218 18 191 20 163.8 20.2C136.7 20.3 109.3 18.7 82 17.7C54.7 16.7 27.3 16.3 13.7 16.2L0 16Z" fill="#494444"></path><path d="M0 103L13.7 96.5C27.3 90 54.7 77 82 72.3C109.3 67.7 136.7 71.3 163.8 73.8C191 76.3 218 77.7 245.2 77.7C272.3 77.7 299.7 76.3 327 72.7C354.3 69 381.7 63 409 68.7C436.3 74.3 463.7 91.7 491 93.8C518.3 96 545.7 83 573 74.8C600.3 66.7 627.7 63.3 654.8 62C682 60.7 709 61.3 736.2 62.5C763.3 63.7 790.7 65.3 818 69C845.3 72.7 872.7 78.3 886.3 81.2L900 84L900 59L886.3 57.3C872.7 55.7 845.3 52.3 818 50.2C790.7 48 763.3 47 736.2 47C709 47 682 48 654.8 48.7C627.7 49.3 600.3 49.7 573 55.8C545.7 62 518.3 74 491 72.5C463.7 71 436.3 56 409 50.8C381.7 45.7 354.3 50.3 327 54.8C299.7 59.3 272.3 63.7 245.2 63.8C218 64 191 60 163.8 56.5C136.7 53 109.3 50 82 54C54.7 58 27.3 69 13.7 74.5L0 80Z" fill="#777170"></path><path d="M0 121L13.7 117.3C27.3 113.7 54.7 106.3 82 104.3C109.3 102.3 136.7 105.7 163.8 107.7C191 109.7 218 110.3 245.2 108.3C272.3 106.3 299.7 101.7 327 95.7C354.3 89.7 381.7 82.3 409 87.3C436.3 92.3 463.7 109.7 491 112.2C518.3 114.7 545.7 102.3 573 95.2C600.3 88 627.7 86 654.8 85.2C682 84.3 709 84.7 736.2 86.2C763.3 87.7 790.7 90.3 818 96.3C845.3 102.3 872.7 111.7 886.3 116.3L900 121L900 82L886.3 79.2C872.7 76.3 845.3 70.7 818 67C790.7 63.3 763.3 61.7 736.2 60.5C709 59.3 682 58.7 654.8 60C627.7 61.3 600.3 64.7 573 72.8C545.7 81 518.3 94 491 91.8C463.7 89.7 436.3 72.3 409 66.7C381.7 61 354.3 67 327 70.7C299.7 74.3 272.3 75.7 245.2 75.7C218 75.7 191 74.3 163.8 71.8C136.7 69.3 109.3 65.7 82 70.3C54.7 75 27.3 88 13.7 94.5L0 101Z" fill="#a8a2a0"></path><path d="M0 151L13.7 151C27.3 151 54.7 151 82 151C109.3 151 136.7 151 163.8 151C191 151 218 151 245.2 151C272.3 151 299.7 151 327 151C354.3 151 381.7 151 409 151C436.3 151 463.7 151 491 151C518.3 151 545.7 151 573 151C600.3 151 627.7 151 654.8 151C682 151 709 151 736.2 151C763.3 151 790.7 151 818 151C845.3 151 872.7 151 886.3 151L900 151L900 119L886.3 114.3C872.7 109.7 845.3 100.3 818 94.3C790.7 88.3 763.3 85.7 736.2 84.2C709 82.7 682 82.3 654.8 83.2C627.7 84 600.3 86 573 93.2C545.7 100.3 518.3 112.7 491 110.2C463.7 107.7 436.3 90.3 409 85.3C381.7 80.3 354.3 87.7 327 93.7C299.7 99.7 272.3 104.3 245.2 106.3C218 108.3 191 107.7 163.8 105.7C136.7 103.7 109.3 100.3 82 102.3C54.7 104.3 27.3 111.7 13.7 115.3L0 119Z" fill="#dbd5d2"></path></svg>